<svg width="24" height="24" viewBox="0 0 24 24" fill="none" xmlns="http://www.w3.org/2000/svg">
<defs><linearGradient id="customGradientDetail" x1="0%" y1="0%" x2="100%" y2="100%">
	<stop offset="0%" stop-color="#36D1DC"/>
	<stop offset="100%" stop-color="#5B86E5"/>
</linearGradient></defs>
<path d="M12 5C15.866 5 19 8.13401 19 12C19 15.866 15.866 19 12 19C8.13401 19 5 15.866 5 12C5 11.7028 5.01846 11.4104 5.05421 11.1237C5.12255 10.5757 4.73367 10.076 4.18563 10.0077C3.63759 9.93935 3.13792 10.3282 3.06958 10.8763C3.02362 11.2448 3 11.6199 3 12C3 16.9706 7.02944 21 12 21C16.9706 21 21 16.9706 21 12C21 7.02944 16.9706 3 12 3C10.15 3 8.42985 3.5588 7 4.51575V4C7 3.44772 6.55228 3 6 3C5.44772 3 5 3.44772 5 4V7C5 7.55228 5.44772 8 6 8H9C9.55228 8 10 7.55228 10 7C10 6.44772 9.55228 6 9 6H8.39202C9.4458 5.36484 10.68 5 12 5Z" fill="url(#customGradientDetail)"/>
</svg>
